<svg xmlns="http://www.w3.org/2000/svg" width="1080" height="1920" viewBox="0 0 1080 1920">
  <rect x="0" y="0" width="1080" height="1920" fill="#101723"/>
  <rect x="60" y="60" width="960" height="1800" rx="36" ry="36" fill="#1A2436"/>

  <text x="120" y="160" fill="#EAF1FF" font-family="Arial" font-size="46" font-weight="700">Loan Details</text>
  <text x="120" y="210" fill="#9DB2D4" font-family="Arial" font-size="30">HDFC Home Loan</text>

  <rect x="120" y="260" rx="24" ry="24" width="840" height="210" fill="#24354F"/>
  <text x="160" y="330" fill="#AFC3E4" font-family="Arial" font-size="28">Balance Left</text>
  <text x="160" y="420" fill="#FFFFFF" font-family="Arial" font-size="70" font-weight="700">₹ 8,42,560</text>

  <rect x="120" y="500" rx="20" ry="20" width="840" height="300" fill="#223047"/>
  <text x="160" y="560" fill="#DDE8FF" font-family="Arial" font-size="30" font-weight="700">Loan Metrics</text>
  <text x="160" y="620" fill="#B6C8E6" font-family="Arial" font-size="28">Interest Rate: 12.5%</text>
  <text x="160" y="670" fill="#B6C8E6" font-family="Arial" font-size="28">Tenure: 60 months</text>
  <text x="160" y="720" fill="#B6C8E6" font-family="Arial" font-size="28">EMI: ₹21,430 / month</text>
  <text x="160" y="770" fill="#B6C8E6" font-family="Arial" font-size="28">Last Date: 05-08-2030</text>

  <text x="120" y="880" fill="#EAF1FF" font-family="Arial" font-size="40" font-weight="700">Upcoming Payments</text>

  <rect x="120" y="920" rx="20" ry="20" width="840" height="120" fill="#1F7A4E"/>
  <text x="160" y="985" fill="#FFFFFF" font-family="Arial" font-size="30">05-03-2026 • ₹21,430 • Paid</text>

  <rect x="120" y="1060" rx="20" ry="20" width="840" height="120" fill="#3B2A2A"/>
  <text x="160" y="1125" fill="#FFFFFF" font-family="Arial" font-size="30">05-04-2026 • ₹21,430 • Due</text>

  <rect x="120" y="1200" rx="20" ry="20" width="840" height="120" fill="#24354F"/>
  <text x="160" y="1265" fill="#FFFFFF" font-family="Arial" font-size="30">05-05-2026 • ₹21,430 • Upcoming</text>

  <rect x="120" y="1380" rx="20" ry="20" width="840" height="140" fill="#2A3A55"/>
  <text x="160" y="1440" fill="#FFFFFF" font-family="Arial" font-size="30" font-weight="700">Actions</text>
  <text x="160" y="1490" fill="#B6C8E6" font-family="Arial" font-size="26">Mark Paid • Add Loan • Edit Loan • Delete Loan</text>
</svg>
