<svg width="512" height="512" viewBox="0 0 512 512" fill="none" xmlns="http://www.w3.org/2000/svg">
  <defs>
    <linearGradient id="bg2" x1="48" y1="48" x2="464" y2="464" gradientUnits="userSpaceOnUse">
      <stop stop-color="#1A6A5E"/>
      <stop offset="1" stop-color="#0C2F2C"/>
    </linearGradient>
  </defs>
  <rect x="24" y="24" width="464" height="464" rx="110" fill="url(#bg2)"/>
  <circle cx="256" cy="230" r="124" fill="#EAFBF4"/>
  <path d="M256 132L336 166V230C336 292 288 334 256 346C224 334 176 292 176 230V166L256 132Z" fill="#1A6A5E"/>
  <path d="M222 232L247 257L292 212" stroke="#EAFBF4" stroke-width="22" stroke-linecap="round" stroke-linejoin="round"/>
  <rect x="126" y="362" width="260" height="42" rx="20" fill="#0A211F"/>
  <rect x="144" y="376" width="84" height="14" rx="7" fill="#27D9A3"/>
  <rect x="238" y="376" width="62" height="14" rx="7" fill="#9CCEC0"/>
  <rect x="308" y="376" width="62" height="14" rx="7" fill="#9CCEC0"/>
</svg>
