<svg width="512" height="512" viewBox="0 0 512 512" fill="none" xmlns="http://www.w3.org/2000/svg">
  <defs>
    <linearGradient id="bg" x1="64" y1="40" x2="448" y2="472" gradientUnits="userSpaceOnUse">
      <stop stop-color="#103B73"/>
      <stop offset="1" stop-color="#0B1F3B"/>
    </linearGradient>
    <linearGradient id="accent" x1="164" y1="154" x2="352" y2="342" gradientUnits="userSpaceOnUse">
      <stop stop-color="#1ED7A8"/>
      <stop offset="1" stop-color="#1497D1"/>
    </linearGradient>
  </defs>
  <rect x="24" y="24" width="464" height="464" rx="110" fill="url(#bg)"/>
  <rect x="128" y="110" width="256" height="292" rx="36" fill="#EAF4FF"/>
  <rect x="160" y="154" width="192" height="30" rx="12" fill="#D1E6FF"/>
  <rect x="160" y="206" width="132" height="20" rx="10" fill="#BED9FF"/>
  <rect x="160" y="246" width="132" height="20" rx="10" fill="#BED9FF"/>
  <rect x="160" y="286" width="132" height="20" rx="10" fill="#BED9FF"/>
  <rect x="308" y="203" width="44" height="106" rx="12" fill="url(#accent)"/>
  <path d="M126 376C126 347 149 324 178 324H334C363 324 386 347 386 376V402H126V376Z" fill="#102D54"/>
  <circle cx="194" cy="363" r="11" fill="#1ED7A8"/>
  <circle cx="232" cy="363" r="11" fill="#1497D1"/>
  <circle cx="270" cy="363" r="11" fill="#1ED7A8"/>
</svg>
